<mxfile host="app.diagrams.net" modified="2023-06-08T09:58:17.856Z" agent="Mozilla/5.0 (Windows NT 10.0; Win64; x64) AppleWebKit/537.36 (KHTML, like Gecko) Chrome/114.0.0.0 Safari/537.36" version="21.3.7" etag="uEGvvoRytOM7h_NsNKqN" type="github">
  <diagram name="第 1 页" id="hgbEkFNSOF00wkxs_uR5">
    <mxGraphModel>
      <root>
        <mxCell id="0" />
        <mxCell id="1" parent="0" />
      </root>
    </mxGraphModel>
  </diagram>
</mxfile>
